<svg xmlns="http://www.w3.org/2000/svg" xmlns:xlink="http://www.w3.org/1999/xlink" width="1080" zoomAndPan="magnify" viewBox="0 0 810 809.999993" height="1080" preserveAspectRatio="xMidYMid meet" version="1.0"><defs><clipPath id="d696a6b041"><path d="M 195 69 L 561 69 L 561 701 L 195 701 Z M 195 69 " clip-rule="nonzero"/></clipPath><clipPath id="07fe3ab0cc"><path d="M 195.925781 77.378906 L 511.445312 52.46875 L 560.675781 676.03125 L 245.15625 700.941406 Z M 195.925781 77.378906 " clip-rule="nonzero"/></clipPath><clipPath id="80f293f792"><path d="M 152.957031 80.773438 L 863.992188 24.636719 L 916.648438 691.5625 L 205.609375 747.699219 Z M 152.957031 80.773438 " clip-rule="nonzero"/></clipPath></defs><g clip-path="url(#d696a6b041)"><g clip-path="url(#07fe3ab0cc)"><g clip-path="url(#80f293f792)"><path fill="#ef3d26" d="M 850.789062 117.117188 C 832.484375 91.605469 802.398438 74.871094 767.238281 72.820312 C 733.074219 70.691406 698.042969 80.496094 669.625 97.625 C 639.089844 115.925781 615.828125 142.304688 597.273438 169.714844 C 596 171.425781 594.941406 173.320312 593.667969 175.03125 C 592.871094 175.09375 592.101562 175.554688 591.550781 176.203125 C 586.839844 182.808594 582.164062 189.816406 580.996094 197.953125 C 580.117188 204.664062 581.902344 211.964844 587.09375 216.582031 C 587.308594 216.765625 587.941406 217.121094 588.371094 217.488281 L 588.289062 221.515625 C 587.71875 221.964844 587.136719 222.210938 586.75 222.441406 C 583.679688 224.292969 580.640625 226.546875 579.921875 230.222656 C 579.375 233.484375 581.660156 236.925781 584.90625 237.273438 C 585.921875 237.394531 586.71875 237.332031 587.703125 237.050781 L 587.628906 238.667969 C 609.449219 229.703125 628.0625 215.761719 645.179688 200.734375 C 629.855469 220.648438 619.765625 243.167969 609.847656 265.273438 C 606.769531 272.15625 603.492188 279.050781 600.214844 285.949219 C 597.257812 291.8125 594.546875 298.261719 590.328125 303.425781 C 589.53125 303.488281 588.960938 303.933594 588.210938 304.597656 C 587.289062 305.675781 586.566406 306.738281 585.847656 307.800781 C 585.648438 307.816406 585.664062 308.015625 585.480469 308.234375 L 585.511719 308.632812 C 575.667969 324.09375 574.894531 344.871094 583.816406 361.0625 L 583.832031 361.265625 C 590.476562 376.628906 596.738281 392.226562 602.414062 408.074219 C 600.722656 417.257812 598.636719 426.472656 595.933594 435.539062 C 593.058594 445.019531 589.171875 454.375 583.421875 463.078125 C 582.40625 462.957031 581.421875 463.234375 580.703125 464.296875 C 561.515625 491.359375 570.0625 525.683594 572.875 556.238281 C 573.554688 564.832031 573.21875 573.308594 573.894531 581.902344 C 574.226562 586.101562 575.34375 590.035156 575.875 594.21875 C 576.421875 598.601562 575.554688 602.894531 574.882812 607.167969 C 571.398438 624.140625 569.539062 641.382812 568.5 658.765625 C 568.074219 668.65625 567.863281 678.730469 567.636719 688.601562 C 567.363281 697.878906 566.90625 707.367188 570.199219 715.957031 C 570.691406 717.125 571.554688 717.863281 572.570312 717.984375 L 572.585938 718.183594 C 572.585938 718.183594 572.785156 718.167969 572.785156 718.167969 C 574.417969 718.441406 575.953125 717.515625 576.242188 716.085938 C 581.203125 712.675781 585.484375 708.316406 589.628906 704.769531 C 596.214844 699.019531 602.804688 693.269531 609.171875 687.335938 C 621.929688 675.667969 634.441406 663.414062 646.550781 651.195312 C 670.371094 626.785156 692.679688 601.089844 713.128906 574.734375 C 754.375 521.390625 789.09375 464.339844 816.179688 404.875 C 829.734375 375.242188 841.222656 344.964844 850.863281 314.234375 C 861.300781 280.824219 870.660156 246.492188 873.589844 212.269531 C 875.96875 178.691406 871.101562 145.082031 850.789062 117.117188 Z M 626.632812 207.828125 C 616.589844 215.660156 605.898438 222.941406 594.285156 228.6875 C 593.375 227.351562 591.511719 226.695312 590.023438 228.21875 C 589.101562 229.296875 588.183594 230.375 586.816406 230.886719 C 585.664062 231.582031 585.832031 231.164062 586.367188 230.316406 C 587.792969 227.992188 590.945312 227.140625 593.015625 225.367188 C 594.335938 224.257812 595.625 222.75 596.085938 220.902344 C 609.089844 217.460938 622.277344 206.160156 628.671875 198.011719 C 644.027344 178.496094 658.691406 157.828125 678.511719 141.378906 C 691.148438 130.726562 706.585938 122.464844 723.253906 119.539062 C 708.554688 129.550781 695.84375 141.820312 685.230469 155.128906 C 665.488281 172.578125 647.46875 191.5 626.632812 207.828125 Z M 748.597656 119.550781 C 761.445312 121.753906 773.144531 127.269531 782.972656 134.539062 C 797.511719 153.101562 806.691406 175.109375 810.6875 197.722656 C 814.003906 216.773438 813.917969 236.089844 811.21875 255.410156 C 805.101562 279.828125 796.136719 303.871094 786.957031 327.726562 C 766.917969 379.597656 742.148438 430.230469 713.011719 478.996094 C 683.890625 527.960938 650.179688 574.875 612.667969 619.472656 C 611.378906 620.984375 610.089844 622.492188 608.785156 623.804688 C 603.695312 625.613281 598.148438 626.65625 592.300781 626.511719 C 592.375 624.898438 592.464844 623.484375 592.539062 621.867188 C 603.859375 614.941406 611.867188 604.25 618.058594 593.503906 C 628.863281 574.949219 637.789062 555.535156 647.550781 536.460938 C 668.121094 496.417969 689.097656 456.34375 709.253906 416.132812 C 728.203125 378.429688 746.121094 340.40625 759.097656 300.960938 C 765.59375 281.339844 770.863281 261.414062 774.511719 241.414062 C 777.722656 223.457031 780.082031 204.96875 778.648438 186.777344 C 777.320312 169.984375 772.367188 153.078125 760.449219 139.734375 C 754.933594 133.535156 747.382812 127.089844 738.015625 125.617188 C 732.105469 124.675781 726.789062 126.101562 721.75 128.511719 C 726.492188 124.917969 731.652344 121.492188 736.832031 118.265625 C 740.675781 118.566406 744.519531 118.867188 748.597656 119.550781 Z M 747.09375 113.234375 C 749.996094 111.796875 753.101562 110.34375 756.222656 109.09375 C 760.488281 112.175781 764.570312 115.472656 768.25 118.804688 C 765.957031 117.777344 763.480469 116.96875 761.003906 116.15625 C 756.460938 114.707031 751.753906 113.667969 747.09375 113.234375 Z M 808.515625 165.109375 C 813.039062 174.003906 815.597656 183.457031 816.953125 193.003906 C 814.996094 183.503906 812.257812 174.265625 808.515625 165.109375 Z M 733.925781 456.023438 C 718.683594 484.582031 701.992188 512.652344 683.835938 540.035156 C 671.261719 559.128906 658.738281 578.824219 643.65625 596.710938 C 638.316406 602.964844 632.195312 609.484375 624.976562 614.882812 C 638.738281 598.105469 652.082031 581.160156 664.78125 563.664062 C 690.394531 528.855469 713.300781 492.851562 733.925781 456.023438 Z M 709.328125 223.425781 C 708.480469 222.890625 707.851562 222.539062 707.003906 222 C 708.371094 221.492188 709.722656 220.78125 711.089844 220.269531 C 713.789062 223.878906 715.703125 227.75 717.019531 231.667969 C 715.367188 228.582031 712.917969 225.558594 709.328125 223.425781 Z M 718.40625 256.90625 C 716.113281 271.167969 710.023438 285.726562 705.171875 298.179688 C 694.429688 325.175781 682.257812 351.882812 669.453125 378.238281 C 658.394531 401.238281 647.136719 424.253906 636.496094 447.421875 C 652.46875 397.484375 673.128906 348.382812 697.734375 300.777344 C 705.457031 286.488281 714.792969 272.277344 718.40625 256.90625 Z M 712.5625 241.476562 C 714.1875 254.421875 708.1875 267.566406 701.859375 279.128906 C 678.121094 322.441406 657.710938 367.097656 641.195312 412.65625 C 645.382812 391.808594 649.570312 370.960938 653.773438 350.3125 C 657.839844 330.480469 661.71875 310.863281 665.785156 291.03125 C 668.527344 277.335938 672.066406 263.582031 678.703125 250.785156 C 683.574219 241.148438 690.523438 232.355469 699.890625 226.183594 C 701.335938 226.671875 702.785156 227.160156 704.046875 227.867188 C 709.511719 230.855469 711.9375 236.09375 712.5625 241.476562 Z M 660.769531 280.964844 C 656.222656 299.832031 652.910156 319 649.164062 337.800781 C 644.960938 358.449219 640.941406 378.882812 636.738281 399.53125 C 632.976562 418.132812 629.214844 436.730469 625.4375 455.132812 C 621.257812 440.378906 616.488281 425.871094 611.324219 411.390625 C 618.015625 381.496094 624.507812 351.617188 631.199219 321.71875 C 637.222656 303.746094 644.460938 285.875 652.332031 268.355469 C 659.039062 253.949219 666.308594 236.476562 682.730469 227.941406 C 684.851562 226.765625 687.203125 225.976562 689.585938 225.589844 C 673.019531 239.972656 665.296875 261.902344 660.769531 280.964844 Z M 636.605469 464.109375 C 660.503906 410.125 688.945312 357.59375 710.765625 302.765625 C 721.492188 275.570312 737.199219 240.132812 715.476562 214.695312 C 714.582031 213.558594 712.9375 213.085938 711.371094 213.609375 C 706.652344 214.988281 702.378906 216.933594 698.539062 219.25 C 686.957031 217.75 675.171875 223.910156 666.960938 232 C 654.464844 244.453125 647.917969 260.859375 641.472656 276.054688 C 648.515625 245.527344 656.960938 214.886719 672.621094 186.496094 C 674.199219 183.558594 675.792969 180.816406 677.570312 177.859375 C 686.890625 171.089844 697.109375 165.453125 708.695312 161.925781 C 722.253906 157.835938 738.046875 156.589844 749.351562 164.75 C 757.867188 170.714844 761.640625 180.273438 763.179688 189.605469 C 764.800781 199.9375 764.238281 210.644531 762.246094 221.058594 C 759.871094 234.320312 756.300781 247.675781 752.914062 260.820312 C 745.664062 288.746094 737.183594 316.371094 727.488281 343.886719 C 708.097656 398.925781 683.984375 452.722656 655.511719 504.855469 C 641.261719 530.722656 626.195312 556.453125 609.636719 581.09375 C 606.402344 585.976562 602.167969 590.933594 595.664062 592.65625 C 597.773438 578.609375 600.898438 564.683594 604.824219 550.699219 C 612.203125 542.269531 614.269531 530.238281 616.695312 520.191406 C 618.207031 513.835938 619.730469 507.683594 621.242188 501.328125 C 625.90625 489.089844 631.15625 476.605469 636.605469 464.109375 Z M 771.097656 195.617188 C 770.308594 185.625 767.890625 175.355469 761.414062 167.21875 C 754.472656 158.3125 742.789062 152.996094 730.101562 152.792969 C 714.785156 152.394531 699.875 157.191406 686.585938 164.675781 C 688.042969 162.75 689.5 160.824219 690.972656 159.101562 C 695.871094 154.890625 700.785156 150.882812 705.898438 146.859375 C 713.117188 141.460938 721.757812 133.738281 731.292969 132.183594 C 741.40625 130.378906 749.898438 138.558594 755.199219 144.574219 C 766.914062 157.933594 770.871094 174.917969 771.78125 191.542969 C 772.832031 209.964844 770.089844 228.6875 766.496094 246.871094 C 759.492188 283.027344 747 318.410156 732.011719 352.785156 C 741.570312 326.082031 750.097656 299.058594 757.410156 271.929688 C 761.285156 257.339844 764.964844 242.769531 768.242188 228.230469 C 770.585938 217.183594 771.75 206.429688 771.097656 195.617188 Z M 603.992188 596.222656 C 608.03125 593.890625 611.007812 590.839844 613.554688 587.421875 C 613.203125 588.050781 612.835938 588.484375 612.683594 589.097656 C 607.746094 597.9375 601.613281 606.871094 593.292969 613.5625 C 593.726562 608.898438 594.164062 604.238281 594.800781 599.5625 C 597.785156 599.125 600.917969 598.074219 603.992188 596.222656 Z M 588.484375 593.421875 C 586.039062 593.011719 583.558594 592.203125 581.464844 591.160156 C 581.417969 590.5625 581.371094 589.960938 581.125 589.378906 C 579.460938 581.0625 580.015625 572.769531 579.550781 564.359375 C 579.441406 562.960938 579.328125 561.558594 579.21875 560.160156 C 583.296875 560.84375 587.695312 560.496094 591.8125 559.167969 C 593.179688 558.65625 594.546875 558.144531 595.714844 557.652344 C 592.632812 569.5625 590.152344 581.425781 588.484375 593.421875 Z M 579.402344 613.449219 C 580.410156 608.34375 581.429688 603.433594 581.632812 598.390625 C 583.496094 599.046875 585.542969 599.488281 587.574219 599.730469 C 586.664062 606.039062 586.152344 612.316406 585.644531 618.589844 C 583.324219 619.777344 580.804688 620.984375 578.050781 621.804688 C 578.445312 619.160156 578.824219 616.3125 579.402344 613.449219 Z M 576.972656 628.527344 C 577.171875 628.511719 577.375 628.496094 577.574219 628.480469 C 580.339844 627.859375 582.875 626.855469 585.210938 625.867188 C 585.121094 627.28125 585.015625 628.496094 584.925781 629.910156 C 584.820312 631.125 586.332031 632.414062 587.761719 632.703125 C 592.625 633.125 597.222656 632.761719 601.585938 632.015625 C 595.695312 638.917969 589.589844 645.636719 583.480469 652.351562 C 580.335938 655.820312 577.1875 659.285156 574.042969 662.753906 C 574.742188 651.230469 575.457031 639.910156 576.972656 628.527344 Z M 584.554688 344.914062 C 582.5 334.214844 584.433594 323 589.71875 313.53125 C 597.535156 308.085938 601.960938 297.878906 605.621094 290.75 C 618.824219 264.363281 628.503906 236.644531 645.648438 211.757812 C 650.527344 204.734375 656.019531 197.867188 662.339844 191.332031 C 648.601562 218.566406 640.644531 247.757812 634.074219 276.636719 C 630.460938 292.007812 627.046875 307.363281 623.632812 322.71875 C 616.144531 345.035156 610.082031 367.640625 605.851562 390.503906 C 605.546875 391.734375 605.441406 392.949219 605.152344 394.378906 C 598.613281 377.796875 591.875 361.234375 584.554688 344.914062 Z M 608.367188 424.902344 C 613.382812 439.992188 618.210938 455.300781 622.238281 470.671875 C 620.484375 476.445312 618.941406 482.398438 617.382812 488.15625 C 616.300781 492.261719 615.21875 496.371094 614.132812 500.480469 C 609.453125 512.515625 605.183594 524.71875 601.519531 536.878906 C 600.402344 540.585938 599.304688 544.496094 598.1875 548.203125 C 595.210938 551.253906 591.355469 553.371094 586.390625 554.164062 C 584.207031 554.539062 581.792969 554.527344 579.730469 553.886719 C 589.210938 510.894531 598.6875 467.90625 608.367188 424.902344 Z M 574.40625 514.476562 C 573.8125 501.851562 575.199219 488.871094 580.113281 477.21875 C 585.332031 471.976562 589.503906 466.21875 593.042969 460.105469 C 588.320312 481.800781 583.394531 503.511719 578.6875 525.40625 C 578.703125 525.605469 578.535156 526.019531 578.550781 526.21875 L 577.808594 547.398438 C 576.527344 536.234375 574.875 525.503906 574.40625 514.476562 Z M 854.519531 273.917969 C 846.84375 304.089844 837.339844 334.007812 825.769531 363.285156 C 803.019531 421.601562 772.867188 477.890625 736.230469 531.070312 C 699.582031 584.050781 656.648438 633.902344 607.726562 679.203125 C 601.738281 684.90625 595.539062 690.421875 589.136719 695.957031 C 584.238281 700.167969 579.402344 705.175781 574.074219 709.015625 C 572.800781 703.082031 573.113281 696.820312 573.222656 690.574219 C 573.359375 682.117188 573.496094 673.65625 573.832031 665.183594 C 573.800781 664.785156 573.953125 664.167969 573.921875 663.769531 L 573.601562 672.441406 C 575.289062 670.902344 576.761719 669.175781 578.234375 667.449219 C 588.625 656.371094 598.617188 645.324219 608.390625 634.09375 C 610.0625 632.351562 611.519531 630.425781 612.992188 628.699219 C 622.734375 624.714844 631.488281 618.390625 638.964844 611.164062 C 654.296875 596.476562 665.566406 578.6875 677.113281 561.886719 C 702.183594 525.308594 724.964844 487.707031 745.25 449.09375 C 765.332031 410.496094 783.339844 371.058594 798.070312 330.875 C 807 306.433594 814.65625 281.085938 818.066406 255.472656 C 818.539062 253.828125 818.996094 251.980469 819.269531 250.351562 C 826.070312 221.851562 828.4375 190.691406 815.035156 163.585938 C 809.027344 151.1875 799.683594 139.855469 787.898438 130.730469 C 782.75 124.097656 776.816406 117.726562 770.128906 112.019531 C 766.464844 108.886719 762.613281 105.972656 758.5625 103.074219 C 757.699219 102.339844 756.269531 102.050781 755.101562 102.542969 C 747.878906 105.328125 740.902344 108.691406 734.359375 112.429688 C 717.488281 112.753906 700.8125 118.09375 686.449219 127.273438 C 663.65625 141.746094 647.394531 162.539062 631.871094 182.472656 C 624.554688 191.699219 618.082031 201.464844 607.5625 208.328125 C 603.9375 210.828125 598.898438 213.238281 594.179688 214.613281 C 593.300781 213.679688 592.023438 212.773438 590.730469 211.667969 C 586.832031 208.15625 585.957031 202.191406 586.976562 197.28125 C 587.402344 195.035156 588.046875 192.972656 589.101562 191.078125 L 589.035156 195.308594 C 617.558594 146.390625 657.015625 98.417969 720.75 82.726562 C 752.90625 74.757812 788.867188 76.746094 816.136719 93.5 C 843.625 110.441406 859.324219 138.566406 864.394531 167.132812 C 870.832031 202.832031 863.230469 239.035156 854.519531 273.917969 Z M 538.15625 674.4375 C 537.03125 672.917969 533.792969 670.15625 534.851562 668.261719 C 535.371094 667.214844 536.726562 666.503906 537.460938 665.640625 C 538.199219 664.777344 538.917969 663.714844 539.4375 662.667969 C 544.140625 653.445312 539.507812 643.152344 535.613281 634.609375 C 533.171875 629.167969 531.730469 623.652344 531.660156 617.621094 C 531.585938 611.59375 532.511719 605.488281 532.835938 599.425781 C 533.246094 589.335938 531.378906 578.421875 523.597656 571.59375 C 524.871094 562.238281 522.5 552.570312 517.453125 544.722656 C 517.007812 544.152344 516.578125 543.785156 515.960938 543.632812 L 515.121094 538.066406 C 514.410156 536.714844 513.898438 535.347656 513.386719 533.980469 C 506.898438 517.996094 501.390625 501.738281 497.050781 484.984375 C 500.65625 482.285156 503.851562 479.417969 506.828125 476.367188 L 506.390625 473.382812 C 506.992188 473.335938 507.558594 472.886719 508.128906 472.441406 C 519.941406 459.039062 515.964844 439.238281 508.96875 424.5 C 504.398438 415.007812 498.859375 405.988281 495.269531 396.214844 C 491.667969 386.242188 491.863281 375.96875 492.441406 365.460938 C 492.839844 357.785156 493.222656 349.910156 492.226562 342.347656 C 495.542969 341.078125 496.398438 336.585938 496.34375 333.371094 C 495.847656 324.5625 492.15625 316.003906 486.589844 309.199219 C 485.929688 308.449219 485.097656 308.113281 484.296875 308.175781 L 483.90625 305.792969 C 481.554688 306.582031 478.726562 306.402344 475.816406 305.222656 C 471.859375 303.523438 468.410156 300.578125 465.542969 297.386719 C 462.628906 293.59375 459.929688 289.984375 457.015625 286.191406 C 450.382812 276.054688 446.253906 264.511719 442.539062 253.136719 C 438.578125 241.179688 434.601562 229.023438 429.65625 217.347656 C 411.328125 173.734375 379.507812 127.367188 324.976562 114.375 C 323.945312 114.054688 322.929688 113.933594 322.113281 113.796875 C 326.59375 101.777344 338.0625 91.617188 353.691406 93.402344 C 372.566406 95.53125 387.992188 110.003906 398.246094 122.671875 C 409.605469 136.660156 417.113281 152.761719 423.039062 169.191406 C 428.976562 185.820312 433.132812 202.789062 437.6875 219.730469 C 439.441406 226.628906 440.917969 235.164062 447.339844 240.085938 C 454.613281 245.546875 464.402344 242.160156 472.128906 238.128906 C 473.097656 237.652344 474.066406 237.171875 474.832031 236.710938 L 474.300781 232.527344 C 474.886719 232.28125 475.453125 231.832031 475.992188 230.984375 C 480.1875 223.011719 482.078125 213.808594 481.367188 204.816406 C 481.242188 203.214844 479.53125 201.941406 477.949219 202.269531 C 475.363281 202.675781 472.996094 203.261719 470.628906 203.851562 C 470.628906 203.851562 470.613281 203.652344 470.613281 203.652344 L 470.535156 202.652344 C 472.078125 196.699219 473.617188 190.742188 473.527344 184.515625 C 473.222656 178.101562 470.886719 171.445312 465.925781 167.210938 L 465.378906 162.832031 C 450.148438 138.085938 433.539062 113.648438 409.171875 95.457031 C 383.773438 76.945312 350.269531 65.308594 316.058594 70.222656 C 278.683594 75.789062 247.375 102.199219 224.480469 128.144531 C 202.324219 153.226562 186.113281 182.261719 177.636719 212.5 C 168.246094 246.433594 168.808594 281.589844 177.242188 314.515625 C 186.265625 349.808594 204.84375 381.328125 227.28125 410.734375 C 249.703125 439.941406 275.027344 467.710938 299.351562 495.5625 C 323.890625 523.59375 348.832031 551.597656 374.710938 578.722656 C 400.15625 605.476562 426.769531 631.738281 454.671875 656.488281 C 468.738281 669.054688 483.371094 681.175781 498.191406 693.082031 C 505.0625 698.570312 511.761719 704.480469 519.570312 709.09375 C 524.421875 711.929688 530.390625 713.671875 536.109375 712.210938 C 536.652344 713.980469 538.960938 715.207031 540.648438 713.664062 C 548.019531 707.652344 549.230469 697.5 546.136719 688.894531 C 544.910156 683.558594 541.53125 678.996094 538.15625 674.4375 Z M 534.496094 658.632812 C 534.019531 660.28125 532.730469 661.789062 531.628906 663.085938 L 531.5 661.484375 C 529.875 663.828125 527.648438 666.214844 524.699219 667.050781 C 520.964844 668.148438 517.808594 666.386719 515.433594 664.363281 C 515.21875 664.179688 515.003906 663.996094 514.988281 663.792969 C 516.585938 663.667969 518.324219 662.726562 518.367188 660.710938 C 519 648.390625 519.636719 636.070312 520.273438 623.75 C 522.058594 623.410156 524.027344 622.851562 525.808594 622.507812 C 526.0625 625.707031 526.699219 628.675781 527.75 631.808594 C 530.429688 640.25 537.382812 649.355469 534.496094 658.632812 Z M 413.457031 521.753906 C 397.550781 496.054688 380.691406 471.035156 362.476562 446.726562 C 344.25 422.21875 324.6875 398.621094 304.171875 375.699219 C 283.871094 352.964844 261.28125 331.816406 243.066406 307.507812 C 237.671875 300.289062 232.640625 292.640625 228.378906 284.527344 C 224.339844 263.929688 223.082031 242.90625 225.625 221.585938 C 226.558594 213.0625 227.140625 202.558594 232.351562 194.703125 C 236.828125 187.714844 245.25 184.835938 253.621094 186.386719 C 264.636719 188.335938 273.136719 194.101562 280.332031 201.175781 C 275.4375 213.027344 277.246094 225.757812 281.542969 236.882812 C 284.574219 244.691406 288.789062 252.203125 293.371094 259.285156 C 284.617188 250.320312 274.191406 243.097656 260.296875 240.371094 C 258.050781 239.945312 255.960938 241.519531 255.71875 243.550781 C 249.398438 311.230469 305.234375 361.132812 351.382812 405.5625 C 363.574219 417.273438 375.792969 429.382812 386.660156 442.203125 C 397.296875 454.640625 406.398438 468 414.730469 481.828125 C 431.214844 509.691406 443.824219 539.472656 457.199219 568.789062 C 464.027344 583.9375 471.242188 598.859375 479.238281 613.515625 C 476.328125 612.335938 473.417969 611.15625 470.695312 609.761719 C 470.277344 609.59375 469.847656 609.226562 469.230469 609.074219 C 466.285156 604.882812 463.339844 600.6875 460.59375 596.480469 C 443.78125 572.0625 428.902344 546.683594 413.457031 521.753906 Z M 454.035156 600.015625 C 442.746094 592.054688 432.574219 583.003906 422.421875 574.148438 C 407.078125 560.675781 392.5 546.742188 378.492188 532.359375 C 350.027344 503.027344 324.234375 471.875 301.3125 438.882812 C 278.625 406.28125 257.808594 371.917969 243.464844 335.433594 C 239.707031 326.078125 236.519531 316.269531 233.746094 306.632812 C 250.28125 330.070312 272.253906 351.066406 290.949219 371.3125 C 334.492188 418.363281 372.703125 469.253906 405.894531 522.753906 C 421.800781 548.453125 437.15625 574.796875 454.234375 600 C 454.019531 599.816406 454.019531 599.816406 454.035156 600.015625 Z M 217.765625 229.046875 C 217.089844 238.351562 217.019531 247.609375 217.558594 257.023438 C 215.433594 247.9375 214.492188 238.558594 215.335938 228.835938 C 216.222656 219.714844 218.34375 210.898438 221.679688 202.183594 C 219.34375 210.816406 218.46875 220.140625 217.765625 229.046875 Z M 480.867188 567.925781 C 452.351562 520.089844 423.847656 472.457031 395.332031 424.621094 C 373.09375 387.558594 351.441406 350.242188 329.003906 313.195312 C 329.253906 313.777344 329.683594 314.144531 329.929688 314.730469 C 367.074219 369.929688 404.019531 425.144531 441.167969 480.34375 C 450.5 494.089844 459.628906 507.851562 468.964844 521.597656 C 478.09375 535.359375 487.027344 549.136719 496.542969 562.664062 C 500.632812 568.578125 507.429688 575.683594 515.296875 581.097656 C 514.675781 593.617188 514.058594 606.140625 513.234375 618.675781 C 504.855469 619.539062 496.535156 618.585938 488.53125 616.601562 C 467.972656 580.410156 453.207031 541.144531 434.386719 504.011719 C 447.824219 526.484375 461.050781 548.773438 474.492188 571.246094 C 476.773438 574.6875 482.949219 571.382812 480.867188 567.925781 Z M 343.722656 351.859375 C 364.140625 386.253906 384.742188 420.429688 405.15625 454.824219 C 404.03125 453.304688 402.921875 451.984375 401.996094 450.445312 C 392.109375 437.347656 380.890625 425.160156 369.101562 413.417969 C 345.507812 389.734375 319.425781 367.65625 298.671875 341.738281 C 277.007812 314.484375 260.597656 282.386719 262.265625 247.457031 C 281.824219 253.15625 293.742188 269.109375 303.386719 284.238281 C 317.425781 306.664062 330.285156 329.386719 343.722656 351.859375 Z M 483.53125 622.027344 C 489.59375 632.609375 496.246094 642.945312 503.660156 652.820312 C 502.769531 651.683594 501.6875 650.765625 500.796875 649.628906 C 495.722656 643.992188 490.835938 638.144531 485.933594 632.09375 C 482.804688 628.117188 479.65625 623.941406 476.511719 619.765625 C 478.789062 620.589844 481.269531 621.398438 483.53125 622.027344 Z M 492.945312 624.097656 C 499.46875 625.191406 506.328125 625.457031 512.925781 624.933594 C 512.421875 633.824219 511.914062 642.714844 511.410156 651.605469 C 504.671875 642.683594 498.515625 633.515625 492.945312 624.097656 Z M 526.59375 599.316406 C 526.28125 605.574219 525.554688 611.667969 525.429688 617.710938 L 525.320312 616.3125 C 523.753906 616.839844 522.167969 617.164062 520.386719 617.507812 C 520.890625 608.617188 521.394531 599.726562 521.898438 590.835938 L 520.011719 577.105469 C 525.867188 582.476562 526.992188 591.640625 526.59375 599.316406 Z M 502.824219 527.570312 C 505.097656 533.425781 507.113281 541.113281 511.753906 546.378906 C 511.617188 547.195312 511.878906 547.976562 512.339844 548.746094 C 514.175781 551.617188 515.644531 554.921875 516.511719 558.273438 C 516.308594 563.316406 515.902344 568.378906 515.683594 573.222656 C 510.539062 569.203125 506.328125 564.308594 502.71875 559.363281 C 493.449219 546.414062 485.148438 532.992188 476.28125 520.011719 C 467.378906 506.636719 458.277344 493.273438 449.378906 479.894531 L 395.574219 399.660156 C 377.570312 372.921875 359.570312 346.183594 341.765625 319.425781 L 314.417969 278.742188 C 306.65625 267.085938 298.316406 255.675781 291.921875 243.507812 C 286.441406 232.675781 282 219.75 285.453125 207.410156 C 285.453125 207.410156 285.4375 207.210938 285.4375 207.210938 C 288.304688 210.402344 290.988281 213.8125 293.46875 217.234375 C 336.675781 272.761719 360.421875 341.691406 418.910156 386.957031 C 420.832031 388.414062 422.773438 390.070312 425.117188 391.695312 C 429.496094 398.792969 433.863281 405.691406 438.429688 412.570312 C 454.460938 437.253906 471.457031 461.457031 489.222656 485.199219 C 493.140625 499.171875 497.492188 513.511719 502.824219 527.570312 Z M 288.449219 199.527344 C 293.046875 191.523438 301.171875 184.847656 311.34375 188.871094 C 321.503906 192.695312 327.753906 203.0625 331.859375 211.789062 C 337.933594 224.988281 343.417969 238.4375 349.691406 251.617188 C 369.074219 293.335938 390.8125 334.261719 414.851562 373.800781 C 413.773438 372.878906 412.695312 371.960938 411.617188 371.039062 C 397.964844 358.640625 386.386719 344.46875 375.777344 329.816406 C 354.324219 300.132812 337.496094 267.867188 317.195312 237.488281 C 312.164062 229.839844 306.953125 222.40625 301.355469 215.203125 C 297.113281 209.90625 293.074219 204.59375 288.449219 199.527344 Z M 465.523438 393.9375 C 434.988281 353.707031 408.882812 310.910156 387.042969 266.167969 C 383.214844 258.425781 379.570312 250.464844 376.125 242.492188 C 398.496094 263.453125 422.589844 283.277344 441.921875 306.492188 C 453.253906 320.078125 463.082031 334.992188 469.003906 351.421875 C 475.703125 370.003906 476.878906 390.023438 478.226562 409.628906 C 479.375 429.253906 481.902344 448.5625 485.617188 467.582031 C 469.164062 445.144531 453.691406 422.429688 438.773438 399.066406 C 447.316406 402.816406 456.667969 404.089844 464.808594 397.613281 C 465.957031 396.921875 466.417969 395.074219 465.523438 393.9375 Z M 481.445312 312.824219 C 481.460938 313.023438 481.660156 313.007812 481.675781 313.210938 C 485.238281 317.554688 488.046875 322.5625 489.289062 328.097656 C 489.632812 329.878906 490.203125 332.046875 490.164062 334.0625 C 489.898438 333.277344 489.621094 332.292969 489.359375 331.511719 C 488.863281 330.34375 488.015625 329.804688 487 329.683594 L 486.582031 326.902344 C 483.1875 322.140625 479.992188 317.363281 476.402344 312.621094 C 478.214844 312.679688 479.847656 312.953125 481.445312 312.824219 Z M 450.425781 289.328125 C 451.582031 291.246094 452.722656 292.964844 454.066406 294.671875 C 455.636719 296.757812 457.640625 299.214844 459.847656 301.65625 C 468.390625 313.050781 476.734375 324.460938 484.507812 336.320312 C 484.035156 337.964844 484.558594 339.53125 485.671875 340.851562 C 488.996094 357.488281 483.15625 375.246094 487.296875 392.019531 C 491.761719 410.371094 505.617188 425.371094 508.515625 444.25 C 509.8125 453 508.921875 462.121094 502.832031 469.039062 C 502.09375 469.902344 501.957031 470.714844 502.234375 471.699219 C 500.027344 474.289062 497.601562 476.691406 494.761719 478.925781 C 490.261719 460.171875 487.332031 440.894531 485.800781 421.503906 C 484.269531 402.113281 484.140625 382.613281 479.824219 363.640625 C 476.117188 347.238281 468.65625 331.738281 458.894531 317.621094 C 439.597656 289.777344 412.46875 267.179688 386.875 243.652344 C 380.574219 237.714844 374.289062 231.976562 368.167969 225.820312 C 365.996094 223.78125 360.957031 226.1875 362.179688 228.910156 C 381.328125 275.269531 405.148438 319.652344 433.421875 361.875 C 440.949219 373.148438 448.863281 384.191406 456.957031 395.015625 C 449 398.660156 438.4375 392.253906 432.707031 388.484375 C 431.859375 387.945312 431.011719 387.410156 430.148438 386.671875 C 417.003906 365.382812 404.242188 343.863281 392.261719 322.078125 C 377.195312 294.304688 363.097656 266.046875 349.96875 237.316406 C 346.570312 229.941406 343.371094 222.546875 340.171875 215.15625 C 337.949219 209.902344 335.738281 204.847656 332.546875 200.070312 C 327.285156 192.039062 319.347656 183.210938 307.976562 181.894531 C 298.007812 180.46875 289.054688 186.808594 283.457031 194.894531 C 272.859375 185.472656 254.96875 175.417969 238.570312 181.742188 C 233.113281 183.984375 228.984375 187.730469 226.101562 191.980469 C 231.984375 179.847656 239.910156 168.160156 248.703125 157.207031 C 253.105469 151.832031 257.507812 146.453125 262.34375 141.445312 C 267.34375 136.023438 272.546875 130.582031 278.84375 126.265625 C 289.351562 119.199219 301.496094 117.636719 313.464844 118.90625 C 309.886719 137.289062 320.792969 153.125 333.460938 165.804688 C 347.667969 180.167969 363.597656 193.394531 378.007812 207.746094 C 403.789062 233.667969 428.066406 260.917969 450.425781 289.328125 Z M 324.496094 121.050781 C 349.960938 127.691406 371.308594 143.304688 387.203125 161.15625 C 403.542969 179.582031 415.320312 201.378906 424.117188 223.617188 C 429.140625 236.292969 432.8125 249.683594 437.667969 262.777344 C 435.429688 259.933594 433.011719 257.308594 430.574219 254.484375 C 417.289062 239.039062 403.429688 224.042969 389.007812 209.492188 C 375.015625 195.308594 360.070312 181.804688 345.308594 168.085938 C 332.070312 155.855469 317.832031 141.089844 319.578125 122.445312 C 319.714844 121.628906 319.851562 120.816406 319.988281 120 C 321.632812 120.472656 323.265625 120.746094 324.496094 121.050781 Z M 537.640625 708.671875 L 537.171875 705.289062 C 530.765625 708.210938 524.421875 704.285156 519.089844 700.480469 C 511.820312 695.019531 504.535156 689.359375 497.648438 683.667969 C 469.074219 660.582031 442.003906 636.167969 416.050781 610.65625 C 364.796875 560.191406 318.105469 506.351562 271.210938 452.523438 C 247.320312 425.042969 223.59375 397.148438 205.84375 365.960938 C 189.003906 336.113281 178.742188 302.929688 177.84375 268.605469 C 176.132812 206.183594 207.699219 142.339844 264.304688 100.054688 C 279.125 89.03125 296.101562 79.84375 315.164062 76.730469 C 331.644531 74.023438 348.472656 75.710938 363.722656 80.339844 C 397.703125 90.328125 422.078125 113.75 440.800781 139.425781 C 447.574219 148.746094 453.558594 158.332031 459.546875 167.917969 C 459.226562 168.949219 459.320312 170.148438 460.597656 171.050781 C 461.246094 171.605469 461.890625 172.15625 462.539062 172.710938 C 463.710938 174.828125 465.085938 176.933594 466.257812 179.054688 C 467.882812 184.355469 466.972656 190.664062 465.632812 196.601562 C 463.964844 200.960938 462.496094 205.300781 461.03125 209.640625 C 460.707031 210.671875 461.003906 211.855469 461.867188 212.589844 C 465.101562 215.351562 468.625 216.683594 472.085938 217.214844 L 471.136719 210.25 C 470.933594 210.265625 470.71875 210.082031 470.519531 210.097656 C 472.085938 209.570312 473.46875 209.261719 475.054688 208.933594 C 474.992188 215.777344 473.3125 222.546875 469.988281 228.84375 C 469.285156 230.109375 469.578125 231.292969 470.441406 232.027344 C 466.585938 234.144531 462.160156 236.703125 457.5625 237.066406 C 452.566406 237.460938 449.714844 234.46875 447.816406 230.796875 C 446.117188 227.109375 445.199219 223.160156 444.300781 219.40625 C 443.136719 214.875 441.976562 210.339844 440.597656 205.621094 C 431.671875 171.527344 421.585938 135.511719 394.589844 109.484375 C 382.597656 97.757812 365.117188 85.257812 345.191406 87.636719 C 329.660156 89.667969 319.058594 100.5625 314.605469 112.980469 C 302.824219 111.5 290.246094 112.691406 279.246094 118.589844 C 265.726562 125.691406 255.847656 138.136719 246.65625 149.121094 C 228.628906 170.457031 213.652344 194.773438 208.859375 220.699219 C 204.355469 245.191406 210.121094 267.265625 220.972656 287.527344 C 220.988281 287.726562 221.003906 287.925781 221.019531 288.128906 C 228.742188 327.34375 245.949219 364.40625 266.382812 399 C 287.03125 433.777344 310.984375 467.085938 337.589844 498.375 C 364.429688 530.050781 393.925781 559.703125 426.261719 587.121094 C 437.695312 596.878906 449.324219 606.621094 462.980469 613.992188 C 468.410156 621.609375 474.039062 629.210938 479.851562 636.597656 C 484.539062 642.464844 489.425781 648.3125 494.496094 653.945312 C 499.335938 659.195312 504.023438 665.0625 509.617188 669.648438 C 514.113281 673.117188 520.132812 675.457031 526.371094 672.953125 C 526.957031 672.707031 527.539062 672.457031 528.125 672.210938 C 529.421875 675.929688 533.105469 679.261719 535.339844 682.101562 C 541.339844 689.273438 546.128906 701.566406 537.640625 708.671875 Z M 537.640625 708.671875 " fill-opacity="1" fill-rule="nonzero"/></g></g></g></svg>