<svg xmlns="http://www.w3.org/2000/svg" xmlns:xlink="http://www.w3.org/1999/xlink" width="1080" zoomAndPan="magnify" viewBox="0 0 810 809.999993" height="1080" preserveAspectRatio="xMidYMid meet" version="1.0"><defs><clipPath id="fe608578ce"><path d="M 203 47 L 613 47 L 613 727 L 203 727 Z M 203 47 " clip-rule="nonzero"/></clipPath><clipPath id="459c7aa8d3"><path d="M 252.777344 47.734375 L 626.699219 76.148438 L 577.316406 726.023438 L 203.394531 697.613281 Z M 252.777344 47.734375 " clip-rule="nonzero"/></clipPath><clipPath id="911c424027"><path d="M -112.917969 17.773438 L 627.449219 74.03125 L 574.714844 768.03125 L -165.648438 711.773438 Z M -112.917969 17.773438 " clip-rule="nonzero"/></clipPath></defs><g clip-path="url(#fe608578ce)"><g clip-path="url(#459c7aa8d3)"><g clip-path="url(#911c424027)"><path fill="#ef3d26" d="M 598.871094 167 C 584.132812 137.835938 555.878906 115.804688 520.046875 108.058594 C 485.257812 100.394531 447.664062 104.863281 415.695312 117.921875 C 381.359375 131.847656 353.210938 155.242188 329.738281 180.457031 C 328.152344 182.011719 326.761719 183.789062 325.179688 185.34375 C 324.347656 185.28125 323.484375 185.632812 322.8125 186.210938 C 316.910156 192.25 310.976562 198.707031 308.472656 206.886719 C 306.496094 213.644531 307.15625 221.4375 311.757812 227.019531 C 311.949219 227.246094 312.542969 227.707031 312.925781 228.15625 L 312.195312 232.285156 C 311.539062 232.65625 310.898438 232.816406 310.464844 232.992188 C 307.007812 234.40625 303.523438 236.230469 302.195312 239.898438 C 301.113281 243.164062 302.90625 247.070312 306.191406 247.945312 C 307.214844 248.234375 308.046875 248.296875 309.101562 248.167969 L 308.769531 249.816406 C 332.644531 244.097656 354.019531 232.742188 374.03125 220.03125 C 355.078125 238.058594 341.09375 259.597656 327.347656 280.738281 C 323.082031 287.320312 318.605469 293.890625 314.128906 300.457031 C 310.148438 306.011719 306.328125 312.210938 301.164062 316.84375 C 300.332031 316.777344 299.675781 317.148438 298.796875 317.707031 C 297.675781 318.671875 296.765625 319.648438 295.855469 320.625 C 295.644531 320.609375 295.628906 320.816406 295.40625 321.007812 L 295.375 321.425781 C 282.773438 335.746094 278.648438 356.992188 285.226562 375.070312 L 285.210938 375.28125 C 289.582031 392.148438 293.519531 409.191406 296.816406 426.394531 C 293.609375 435.566406 289.984375 444.710938 285.75 453.597656 C 281.277344 462.886719 275.777344 471.886719 268.472656 479.914062 C 267.445312 479.625 266.390625 479.753906 265.480469 480.730469 C 241.414062 505.484375 244.695312 542.152344 242.691406 574.023438 C 242.011719 582.96875 240.308594 591.632812 239.628906 600.578125 C 239.296875 604.949219 239.8125 609.175781 239.6875 613.558594 C 239.546875 618.15625 237.96875 622.429688 236.59375 626.71875 C 230.289062 643.613281 225.613281 661.046875 221.757812 678.753906 C 219.734375 688.855469 217.902344 699.183594 216.089844 709.300781 C 214.320312 718.792969 212.328125 728.480469 214.339844 737.839844 C 214.660156 739.121094 215.429688 740.015625 216.453125 740.304688 L 216.4375 740.511719 C 216.4375 740.511719 216.644531 740.527344 216.644531 740.527344 C 218.277344 741.070312 220.007812 740.363281 220.535156 738.941406 C 226.179688 736.230469 231.285156 732.429688 236.113281 729.449219 C 243.808594 724.59375 251.503906 719.734375 259.007812 714.652344 C 273.996094 704.699219 288.824219 694.105469 303.234375 683.480469 C 331.640625 662.199219 358.703125 639.347656 383.957031 615.523438 C 434.921875 567.28125 479.769531 514.175781 517.15625 457.367188 C 535.839844 429.066406 552.507812 399.777344 567.351562 369.71875 C 583.4375 337.035156 598.566406 303.230469 607.0625 268.507812 C 614.890625 234.355469 615.273438 199.015625 598.871094 167 Z M 353.820312 224.355469 C 342.234375 230.800781 330.078125 236.574219 317.210938 240.621094 C 316.488281 239.101562 314.679688 238.125 312.90625 239.457031 C 311.785156 240.417969 310.664062 241.378906 309.175781 241.683594 C 307.882812 242.214844 308.121094 241.8125 308.808594 241.027344 C 310.648438 238.867188 314.023438 238.496094 316.441406 237.003906 C 317.976562 236.074219 319.542969 234.730469 320.308594 232.902344 C 334.234375 231.449219 349.605469 221.945312 357.492188 214.589844 C 376.410156 196.980469 394.800781 178.078125 417.820312 164.335938 C 432.523438 155.410156 449.722656 149.390625 467.328125 149.054688 C 450.609375 156.992188 435.574219 167.570312 422.523438 179.554688 C 399.425781 194.335938 377.863281 210.90625 353.820312 224.355469 Z M 493.390625 153.125 C 506.25 157.453125 517.394531 164.996094 526.335938 174.046875 C 538.3125 195.46875 544.226562 219.570312 544.710938 243.464844 C 545.066406 263.585938 541.882812 283.4375 536.011719 302.875 C 525.804688 327.003906 512.734375 350.289062 499.472656 373.351562 C 470.546875 423.476562 436.960938 471.578125 399.179688 517.054688 C 361.386719 562.738281 319.199219 605.578125 273.476562 645.429688 C 271.910156 646.777344 270.339844 648.121094 268.789062 649.257812 C 263.269531 650.304688 257.394531 650.488281 251.40625 649.402344 C 251.742188 647.753906 252.058594 646.3125 252.394531 644.664062 C 265.148438 639.355469 275.09375 629.644531 283.183594 619.585938 C 297.269531 602.238281 309.558594 583.707031 322.652344 565.65625 C 350.226562 527.777344 378.21875 489.925781 405.394531 451.804688 C 430.921875 416.074219 455.445312 379.84375 475.113281 341.363281 C 484.9375 322.226562 493.546875 302.578125 500.507812 282.59375 C 506.683594 264.644531 512.078125 246.007812 513.515625 227.074219 C 514.84375 209.59375 512.457031 191.410156 502.34375 175.78125 C 497.664062 168.519531 490.933594 160.683594 481.535156 157.667969 C 475.609375 155.753906 469.914062 156.367188 464.34375 158.035156 C 469.800781 155.101562 475.65625 152.40625 481.496094 149.921875 C 485.402344 150.84375 489.308594 151.769531 493.390625 153.125 Z M 492.855469 146.386719 C 496.074219 145.378906 499.496094 144.382812 502.90625 143.59375 C 506.800781 147.449219 510.46875 151.492188 513.722656 155.507812 C 511.527344 154.085938 509.109375 152.855469 506.691406 151.625 C 502.253906 149.40625 497.578125 147.585938 492.855469 146.386719 Z M 547.707031 209.578125 C 550.933594 219.449219 552.046875 229.582031 551.910156 239.617188 C 551.421875 229.535156 550.082031 219.597656 547.707031 209.578125 Z M 424.371094 496.78125 C 404.117188 523.707031 382.453125 549.898438 359.394531 575.144531 C 343.40625 592.765625 327.367188 611.011719 308.992188 626.988281 C 302.5 632.566406 295.15625 638.285156 286.871094 642.679688 C 303.710938 627.632812 320.152344 612.347656 336.015625 596.390625 C 367.933594 564.703125 397.257812 531.347656 424.371094 496.78125 Z M 436.359375 253.652344 C 435.574219 252.964844 434.980469 252.5 434.195312 251.8125 C 435.683594 251.507812 437.1875 250.992188 438.675781 250.6875 C 440.875 254.832031 442.222656 259.121094 442.945312 263.359375 C 441.742188 259.921875 439.707031 256.417969 436.359375 253.652344 Z M 440.328125 289.535156 C 435.683594 303.832031 427.085938 317.828125 420.101562 329.855469 C 404.730469 355.898438 387.929688 381.410156 370.539062 406.460938 C 355.480469 428.339844 340.214844 450.203125 325.558594 472.320312 C 349.988281 423.527344 379.105469 376.34375 412.039062 331.335938 C 422.269531 317.882812 434.148438 304.761719 440.328125 289.535156 Z M 436.792969 272.730469 C 436.390625 286.304688 428.109375 298.859375 419.75 309.738281 C 388.398438 350.46875 360.25 393.121094 335.960938 437.320312 C 343.609375 416.554688 351.257812 395.785156 358.890625 375.226562 C 366.25 355.484375 373.386719 335.933594 380.746094 316.191406 C 385.761719 302.550781 391.605469 288.972656 400.476562 276.878906 C 407.03125 267.75 415.589844 259.816406 426.210938 254.972656 C 427.621094 255.707031 429.03125 256.441406 430.214844 257.371094 C 435.355469 261.320312 437.011719 267.097656 436.792969 272.730469 Z M 377.199219 305.039062 C 369.5 323.710938 363.019531 342.890625 356.15625 361.625 C 348.523438 382.183594 341.117188 402.550781 333.484375 423.109375 C 326.632812 441.636719 319.785156 460.160156 312.953125 478.480469 C 311.015625 462.632812 308.441406 446.949219 305.449219 431.234375 C 317.121094 401.566406 328.585938 371.878906 340.257812 342.207031 C 349.335938 324.6875 359.640625 307.472656 370.542969 290.71875 C 379.75 276.976562 390.027344 260.175781 408.285156 254.03125 C 410.652344 253.164062 413.195312 252.730469 415.710938 252.710938 C 396.371094 264.84375 384.914062 286.160156 377.199219 305.039062 Z M 322.996094 489.496094 C 356.226562 437.816406 393.890625 388.351562 425.117188 335.46875 C 440.507812 309.222656 462.339844 275.300781 444.082031 245.65625 C 443.34375 244.34375 441.726562 243.59375 440.03125 243.882812 C 434.957031 244.546875 430.253906 245.863281 425.933594 247.625 C 414.261719 244.226562 401.15625 248.675781 391.414062 255.679688 C 376.570312 266.480469 367.207031 282.304688 358.144531 296.894531 C 370.28125 266.628906 383.875 236.476562 404.527344 209.792969 C 406.625 207.019531 408.703125 204.457031 411.003906 201.703125 C 421.675781 196.234375 433.082031 192.078125 445.566406 190.304688 C 460.164062 188.277344 476.601562 189.523438 486.921875 199.726562 C 494.722656 207.226562 497.070312 217.660156 497.160156 227.503906 C 497.167969 238.386719 494.875 249.308594 491.152344 259.699219 C 486.589844 272.957031 480.773438 286.117188 475.183594 299.089844 C 463.253906 326.648438 450.105469 353.695312 435.722656 380.4375 C 406.964844 433.925781 373.542969 485.386719 335.910156 534.429688 C 317.109375 558.746094 297.492188 582.789062 276.511719 605.476562 C 272.402344 609.976562 267.253906 614.398438 260.289062 615.125 C 264.710938 601.019531 270.15625 587.203125 276.433594 573.445312 C 285.375 565.964844 289.429688 553.921875 293.53125 543.980469 C 296.105469 537.6875 298.660156 531.601562 301.230469 525.308594 C 307.988281 513.472656 315.390625 501.476562 322.996094 489.496094 Z M 504.335938 234.957031 C 505.125 224.550781 504.285156 213.605469 498.929688 204.199219 C 493.222656 193.925781 482.058594 186.589844 469.042969 184.34375 C 453.355469 181.480469 437.253906 184.023438 422.390625 189.589844 C 424.195312 187.84375 426.003906 186.097656 427.792969 184.558594 C 433.503906 181.015625 439.199219 177.683594 445.105469 174.363281 C 453.390625 169.96875 463.515625 163.414062 473.570312 163.339844 C 484.261719 163.105469 491.679688 172.878906 496.167969 179.917969 C 506.074219 195.53125 507.421875 213.632812 505.691406 230.875 C 503.820312 249.988281 497.996094 268.800781 491.386719 286.925781 C 478.390625 322.984375 459.871094 357.367188 438.949219 390.3125 C 453.058594 364.382812 466.160156 337.960938 478.027344 311.234375 C 484.355469 296.855469 490.472656 282.460938 496.171875 268.035156 C 500.355469 257.050781 503.273438 246.179688 504.335938 234.957031 Z M 268.28125 620.128906 C 272.808594 618.378906 276.359375 615.71875 279.527344 612.609375 C 279.0625 613.203125 278.617188 613.589844 278.359375 614.195312 C 271.871094 622.492188 264.128906 630.695312 254.5 636.242188 C 255.695312 631.519531 256.890625 626.796875 258.296875 622.089844 C 261.433594 622.121094 264.824219 621.539062 268.28125 620.128906 Z M 252.78125 614.765625 C 250.332031 613.949219 247.914062 612.71875 245.929688 611.3125 C 245.976562 610.6875 246.023438 610.066406 245.863281 609.425781 C 245.488281 600.605469 247.382812 592.167969 248.257812 583.445312 C 248.367188 581.988281 248.476562 580.53125 248.589844 579.074219 C 252.671875 580.429688 257.25 580.777344 261.699219 580.070312 C 263.1875 579.765625 264.675781 579.460938 265.953125 579.136719 C 260.875 590.890625 256.421875 602.691406 252.78125 614.765625 Z M 240.234375 633.902344 C 242.085938 628.8125 243.925781 623.929688 244.945312 618.773438 C 246.753906 619.75 248.785156 620.53125 250.835938 621.105469 C 248.890625 627.445312 247.359375 633.816406 245.828125 640.1875 C 243.25 641.039062 240.46875 641.875 237.507812 642.277344 C 238.335938 639.621094 239.183594 636.753906 240.234375 633.902344 Z M 235.320312 649.019531 C 235.527344 649.035156 235.734375 649.050781 235.945312 649.066406 C 238.890625 648.871094 241.65625 648.246094 244.21875 647.601562 C 243.898438 649.042969 243.597656 650.273438 243.277344 651.714844 C 242.972656 652.949219 244.320312 654.515625 245.746094 655.042969 C 250.675781 656.253906 255.464844 656.617188 260.074219 656.550781 C 252.90625 662.703125 245.550781 668.632812 238.191406 674.5625 C 234.402344 677.621094 230.613281 680.683594 226.820312 683.742188 C 229.386719 672.007812 231.9375 660.480469 235.320312 649.019531 Z M 288.574219 358.582031 C 288.179688 347.25 291.960938 336.027344 298.917969 327.136719 C 307.828125 322.789062 314.015625 313.003906 318.921875 306.261719 C 336.730469 281.242188 351.125 254.292969 372.746094 231.445312 C 378.886719 225.003906 385.632812 218.820312 393.183594 213.117188 C 374.6875 238.917969 361.832031 267.664062 350.445312 296.308594 C 344.265625 311.535156 338.292969 326.78125 332.320312 342.023438 C 321.039062 363.769531 311.183594 386.042969 303.171875 408.875 C 302.660156 410.09375 302.355469 411.328125 301.828125 412.75 C 297.761719 394.652344 293.488281 376.535156 288.574219 358.582031 Z M 300.242188 444.652344 C 302.980469 460.976562 305.492188 477.492188 307.171875 493.945312 C 304.441406 499.597656 301.898438 505.476562 299.375 511.144531 C 297.605469 515.195312 295.832031 519.246094 294.058594 523.296875 C 287.3125 534.925781 280.96875 546.792969 275.25 558.707031 C 273.511719 562.339844 271.753906 566.183594 270.011719 569.820312 C 266.460938 572.480469 262.15625 574.035156 256.921875 574.058594 C 254.617188 574.089844 252.136719 573.691406 250.117188 572.703125 C 266.757812 530.015625 283.394531 487.324219 300.242188 444.652344 Z M 250.960938 531.324219 C 252.371094 518.246094 255.882812 505.117188 262.800781 493.921875 C 269.007812 489.371094 274.222656 484.117188 278.84375 478.398438 C 270.507812 499.949219 261.964844 521.488281 253.613281 543.246094 C 253.597656 543.457031 253.355469 543.855469 253.339844 544.0625 L 249.183594 565.726562 C 249.652344 554.039062 249.675781 542.738281 250.960938 531.324219 Z M 577.574219 328.84375 C 564.84375 358.644531 550.273438 387.886719 533.683594 416.136719 C 500.941406 472.460938 460.910156 525.511719 414.714844 574.324219 C 368.53125 622.933594 316.394531 667.316406 258.824219 706.058594 C 251.753906 710.964844 244.488281 715.644531 237.019531 720.308594 C 231.308594 723.851562 225.535156 728.226562 219.4375 731.320312 C 219.082031 725.015625 220.402344 718.628906 221.515625 712.222656 C 223.015625 703.546875 224.511719 694.871094 226.214844 686.210938 C 226.246094 685.792969 226.503906 685.183594 226.535156 684.769531 L 224.8125 693.636719 C 226.796875 692.324219 228.589844 690.785156 230.378906 689.246094 C 242.839844 679.519531 254.882812 669.761719 266.734375 659.777344 C 268.734375 658.253906 270.539062 656.507812 272.332031 654.96875 C 282.988281 652.429688 293.003906 647.332031 301.851562 641.097656 C 319.972656 628.453125 334.414062 611.96875 348.980469 596.539062 C 380.625 562.945312 410.074219 527.929688 437.125 491.472656 C 463.964844 455 488.804688 417.332031 510.390625 378.367188 C 523.496094 354.664062 535.429688 329.828125 543.039062 304.035156 C 543.789062 302.417969 544.558594 300.59375 545.101562 298.960938 C 556.660156 270.746094 564.089844 239.078125 554.652344 209.058594 C 550.460938 195.347656 542.667969 182.195312 532.015625 170.921875 C 527.78125 163.273438 522.703125 155.773438 516.742188 148.832031 C 513.472656 145.023438 509.980469 141.410156 506.277344 137.78125 C 505.507812 136.886719 504.082031 136.359375 502.804688 136.679688 C 494.929688 138.382812 487.21875 140.726562 479.890625 143.519531 C 462.488281 141.152344 444.484375 143.96875 428.242188 151.105469 C 402.484375 162.335938 382.429688 181.113281 363.269531 199.121094 C 354.265625 207.4375 346.046875 216.441406 334.128906 221.8125 C 330 223.800781 324.433594 225.472656 319.359375 226.132812 C 318.605469 225.03125 317.4375 223.894531 316.28125 222.550781 C 312.835938 218.3125 312.894531 212.039062 314.730469 207.15625 C 315.53125 204.914062 316.519531 202.894531 317.910156 201.117188 L 317.164062 205.457031 C 354.335938 159.722656 402.601562 116.71875 470.65625 110.796875 C 505 107.753906 541.664062 115.5625 567.019531 137.164062 C 592.570312 158.988281 604.207031 190.429688 604.84375 220.617188 C 605.742188 258.359375 592.121094 294.371094 577.574219 328.84375 Z M 188.042969 690.007812 C 187.128906 688.261719 184.246094 684.902344 185.636719 683.125 C 186.339844 682.132812 187.84375 681.621094 188.738281 680.851562 C 189.636719 680.082031 190.546875 679.105469 191.25 678.109375 C 197.5625 669.382812 194.449219 658.050781 191.816406 648.644531 C 190.175781 642.65625 189.578125 636.753906 190.46875 630.539062 C 191.359375 624.328125 193.289062 618.199219 194.597656 612.019531 C 196.636719 601.707031 196.464844 590.183594 189.558594 581.914062 C 192.367188 572.5 191.476562 562.175781 187.546875 553.296875 C 187.179688 552.640625 186.792969 552.195312 186.1875 551.9375 L 186.210938 546.078125 C 185.699219 544.574219 185.394531 543.085938 185.089844 541.597656 C 180.972656 524.125 177.917969 506.519531 176.140625 488.59375 C 180.28125 486.398438 184.027344 483.960938 187.578125 481.300781 L 187.605469 478.164062 C 188.230469 478.210938 188.886719 477.84375 189.542969 477.472656 C 203.839844 465.582031 202.925781 444.585938 198.089844 428.308594 C 194.914062 417.8125 190.660156 407.652344 188.539062 397.027344 C 186.433594 386.191406 188.277344 375.660156 190.558594 364.949219 C 192.199219 357.121094 193.855469 349.082031 194.039062 341.144531 C 197.65625 340.371094 199.253906 335.886719 199.714844 332.574219 C 200.617188 323.433594 198.191406 314.039062 193.558594 306.152344 C 193 305.273438 192.199219 304.796875 191.367188 304.730469 L 191.347656 302.21875 C 188.804688 302.652344 185.921875 302.015625 183.117188 300.335938 C 179.324219 297.957031 176.246094 294.375 173.808594 290.628906 C 171.421875 286.261719 169.222656 282.121094 166.835938 277.75 C 161.636719 266.265625 159.242188 253.734375 157.246094 241.441406 C 155.089844 228.511719 152.949219 215.371094 149.734375 202.570312 C 137.878906 154.785156 112.585938 102.003906 58.59375 79.902344 C 57.582031 79.40625 56.558594 79.121094 55.742188 78.847656 C 62.277344 67.207031 75.699219 58.597656 91.484375 62.9375 C 110.554688 68.152344 124.09375 85.507812 132.609375 100.179688 C 142.050781 116.382812 147.1875 134.144531 150.648438 151.988281 C 154.089844 170.042969 155.644531 188.160156 157.613281 206.308594 C 158.308594 213.6875 158.460938 222.699219 164.277344 228.789062 C 170.878906 235.570312 181.488281 233.65625 190.082031 230.75 C 191.152344 230.414062 192.222656 230.078125 193.089844 229.722656 L 193.210938 225.339844 C 193.851562 225.179688 194.507812 224.808594 195.195312 224.023438 C 200.792969 216.496094 204.207031 207.335938 204.917969 197.972656 C 205.046875 196.308594 203.492188 194.726562 201.8125 194.808594 C 199.089844 194.808594 196.5625 195.035156 194.03125 195.261719 C 194.03125 195.261719 194.046875 195.054688 194.046875 195.054688 L 194.128906 194.011719 C 196.667969 188.136719 199.207031 182.261719 200.113281 175.839844 C 200.828125 169.199219 199.492188 161.980469 195.070312 156.828125 L 195.210938 152.234375 C 183.515625 124.347656 170.347656 96.558594 148.207031 73.945312 C 125.054688 50.835938 92.464844 33.5 56.5 33.070312 C 17.171875 32.804688 -19.253906 54.941406 -46.957031 77.953125 C -73.761719 100.195312 -95.089844 127.457031 -108.648438 157.191406 C -123.746094 190.582031 -128.800781 226.824219 -125.40625 262.035156 C -121.785156 299.773438 -107.730469 335.167969 -89.371094 369.003906 C -71 402.628906 -49.40625 435.246094 -28.855469 467.785156 C -8.113281 500.546875 13.042969 533.339844 35.308594 565.378906 C 57.183594 596.972656 80.34375 628.242188 105.070312 658.167969 C 117.519531 673.347656 130.628906 688.15625 143.957031 702.773438 C 150.144531 709.523438 156.085938 716.671875 163.375 722.667969 C 167.910156 726.359375 173.769531 729.105469 179.882812 728.523438 C 180.15625 730.429688 182.335938 732.058594 184.320312 730.746094 C 192.863281 725.742188 195.734375 715.496094 193.933594 706.152344 C 193.527344 700.46875 190.785156 695.238281 188.042969 690.007812 Z M 186.8125 673.167969 C 186.058594 674.785156 184.492188 676.132812 183.148438 677.285156 L 183.277344 675.621094 C 181.230469 677.769531 178.558594 679.867188 175.390625 680.253906 C 171.371094 680.785156 168.410156 678.46875 166.292969 676.003906 C 166.101562 675.78125 165.910156 675.558594 165.925781 675.347656 C 167.589844 675.476562 169.527344 674.785156 169.890625 672.722656 C 172.523438 660.152344 175.152344 647.585938 177.78125 635.019531 C 179.667969 634.953125 181.78125 634.695312 183.671875 634.628906 C 183.417969 637.957031 183.597656 641.113281 184.175781 644.503906 C 185.578125 653.609375 191.269531 664.089844 186.8125 673.167969 Z M 84.285156 513.007812 C 72.046875 484.035156 58.71875 455.601562 43.886719 427.6875 C 29.070312 399.558594 12.734375 372.15625 -4.691406 345.296875 C -21.921875 318.664062 -41.761719 293.296875 -56.59375 265.378906 C -60.984375 257.09375 -64.933594 248.421875 -68.011719 239.394531 C -68.867188 217.5625 -66.789062 195.746094 -60.757812 174.226562 C -58.429688 165.613281 -56.152344 154.902344 -49.53125 147.664062 C -43.808594 141.191406 -34.683594 139.582031 -26.328125 142.519531 C -15.3125 146.285156 -7.492188 153.578125 -1.226562 162.007812 C -8.164062 173.410156 -8.34375 186.792969 -5.707031 198.921875 C -3.839844 207.433594 -0.710938 215.835938 2.863281 223.851562 C -4.699219 213.230469 -14.265625 204.132812 -28.113281 199.101562 C -30.355469 198.304688 -32.757812 199.585938 -33.332031 201.636719 C -50.683594 270.222656 -1.261719 330.488281 39.074219 383.578125 C 49.734375 397.574219 60.359375 411.984375 69.480469 426.910156 C 78.425781 441.402344 85.640625 456.601562 91.996094 472.15625 C 104.476562 503.449219 112.671875 536.097656 121.726562 568.386719 C 126.320312 585.0625 131.347656 601.5625 137.21875 617.914062 C 134.417969 616.234375 131.613281 614.558594 129.035156 612.6875 C 128.636719 612.449219 128.25 612 127.644531 611.742188 C 125.285156 606.960938 122.929688 602.175781 120.777344 597.410156 C 107.402344 569.601562 96.171875 541.121094 84.285156 513.007812 Z M 113.464844 599.992188 C 103.132812 590 94.128906 579.058594 85.105469 568.328125 C 71.484375 552.011719 58.726562 535.347656 46.628906 518.3125 C 22.058594 483.582031 0.527344 447.414062 -17.753906 409.816406 C -35.859375 372.648438 -51.757812 333.976562 -60.664062 294.164062 C -63.027344 283.9375 -64.730469 273.34375 -66.039062 262.988281 C -52.792969 289.738281 -33.5625 314.847656 -17.582031 338.667969 C 19.652344 394.03125 50.792969 452.488281 76.347656 512.824219 C 88.585938 541.800781 100.15625 571.355469 113.675781 600.007812 C 113.480469 599.785156 113.480469 599.785156 113.464844 599.992188 Z M -70.035156 180.636719 C -72.222656 190.101562 -73.78125 199.609375 -74.730469 209.375 C -75.460938 199.691406 -74.925781 189.894531 -72.503906 180.03125 C -70.125 170.792969 -66.53125 162.066406 -61.707031 153.644531 C -65.492188 162.148438 -67.882812 171.59375 -70.035156 180.636719 Z M 146.203125 571.292969 C 124.546875 517.535156 102.871094 463.980469 81.210938 410.21875 C 64.289062 368.539062 48 326.699219 30.867188 285 C 31.027344 285.640625 31.414062 286.089844 31.574219 286.730469 C 60.925781 349.445312 90.066406 412.148438 119.414062 474.867188 C 126.808594 490.496094 133.996094 506.113281 141.386719 521.742188 C 148.574219 537.359375 155.550781 552.957031 163.167969 568.398438 C 166.425781 575.132812 172.273438 583.53125 179.5 590.359375 C 176.855469 603.136719 174.210938 615.910156 171.355469 628.671875 C 162.601562 628.214844 154.195312 625.902344 146.285156 622.578125 C 130.945312 582.066406 122.054688 539.320312 108.648438 498.117188 C 118.867188 523.382812 128.894531 548.421875 139.117188 573.6875 C 140.914062 577.589844 147.792969 575.183594 146.203125 571.292969 Z M 39.808594 327.121094 C 55.289062 365.761719 70.996094 404.210938 86.476562 442.851562 C 85.5625 441.109375 84.632812 439.574219 83.925781 437.84375 C 75.863281 422.789062 66.277344 408.457031 56.035156 394.492188 C 35.570312 366.355469 12.289062 339.472656 -4.898438 309.492188 C -22.808594 277.992188 -34.542969 242.359375 -27.226562 206.703125 C -8.027344 215.699219 1.671875 234.015625 9.164062 251.121094 C 20.007812 276.433594 29.585938 301.855469 39.808594 327.121094 Z M 140.269531 627.355469 C 144.8125 639.210938 149.992188 650.90625 156.035156 662.25 C 155.300781 660.9375 154.339844 659.816406 153.601562 658.507812 C 149.289062 651.898438 145.199219 645.101562 141.128906 638.09375 C 138.546875 633.503906 135.980469 628.703125 133.417969 623.902344 C 135.625 625.117188 138.042969 626.347656 140.269531 627.355469 Z M 149.621094 630.996094 C 156.152344 633.164062 163.167969 634.535156 170.03125 635.058594 C 168.089844 644.117188 166.144531 653.179688 164.199219 662.242188 C 158.699219 651.988281 153.839844 641.570312 149.621094 630.996094 Z M 188.195312 610.902344 C 186.871094 617.292969 185.148438 623.4375 184.050781 629.632812 L 184.160156 628.179688 C 182.464844 628.46875 180.785156 628.550781 178.894531 628.613281 C 180.839844 619.554688 182.785156 610.492188 184.726562 601.429688 L 184.984375 587.007812 C 190.144531 593.46875 189.835938 603.074219 188.195312 610.902344 Z M 175.253906 533.316406 C 176.652344 539.703125 177.492188 547.929688 181.417969 554.085938 C 181.148438 554.902344 181.292969 555.753906 181.644531 556.617188 C 183.070312 559.863281 184.050781 563.496094 184.40625 567.082031 C 183.386719 572.238281 182.160156 577.375 181.15625 582.324219 C 176.511719 577.363281 172.96875 571.652344 170.050781 565.992188 C 162.59375 551.191406 156.207031 536.054688 149.167969 521.289062 C 142.15625 506.105469 134.941406 490.90625 127.933594 475.722656 L 85.460938 384.589844 C 71.238281 354.207031 57.011719 323.824219 42.992188 293.457031 L 21.390625 247.234375 C 15.277344 234.003906 8.527344 220.933594 3.90625 207.394531 C 0.00390625 195.378906 -2.488281 181.375 3.039062 169.238281 C 3.039062 169.238281 3.054688 169.03125 3.054688 169.03125 C 5.488281 172.773438 7.703125 176.707031 9.707031 180.628906 C 45.234375 244.652344 58.605469 319.339844 111.496094 375.265625 C 113.242188 377.074219 114.972656 379.089844 117.121094 381.136719 C 120.488281 389.136719 123.875 396.925781 127.464844 404.734375 C 139.992188 432.6875 153.59375 460.300781 168.054688 487.5625 C 169.84375 502.558594 172.019531 518 175.253906 533.316406 Z M 7.382812 161.613281 C 13.394531 154.117188 22.816406 148.554688 32.636719 154.324219 C 42.46875 159.886719 47.234375 171.550781 50.058594 181.183594 C 54.1875 195.730469 57.671875 210.433594 62.007812 224.996094 C 75.257812 271.003906 91.050781 316.574219 109.433594 361.085938 C 108.472656 359.964844 107.511719 358.847656 106.550781 357.726562 C 94.5 342.789062 84.863281 326.359375 76.300781 309.59375 C 59 275.628906 46.863281 239.753906 30.859375 205.257812 C 26.914062 196.585938 22.742188 188.105469 18.140625 179.804688 C 14.628906 173.675781 11.328125 167.566406 7.382812 161.613281 Z M 158.3125 389.917969 C 133.363281 343.648438 113.375 295.457031 98.089844 245.949219 C 95.394531 237.371094 92.921875 228.601562 90.65625 219.847656 C 110.300781 244.992188 131.902344 269.238281 148.0625 296.207031 C 157.535156 312 165.25 328.910156 168.707031 346.753906 C 172.617188 366.933594 170.617188 387.710938 168.859375 408.089844 C 166.894531 428.453125 166.402344 448.714844 167.171875 468.867188 C 153.847656 443.15625 141.578125 417.320312 129.980469 390.902344 C 138.164062 396.128906 147.582031 398.9375 156.988281 393.582031 C 158.28125 393.054688 159.050781 391.226562 158.3125 389.917969 Z M 187.6875 309.058594 C 187.671875 309.265625 187.878906 309.28125 187.863281 309.488281 C 190.832031 314.527344 192.917969 320.128906 193.304688 326.019531 C 193.371094 327.90625 193.613281 330.226562 193.25 332.292969 C 193.101562 331.445312 192.972656 330.386719 192.828125 329.539062 C 192.507812 328.261719 191.722656 327.574219 190.699219 327.285156 L 190.710938 324.355469 C 187.984375 318.917969 185.46875 313.492188 182.535156 308.039062 C 184.390625 308.386719 186.023438 308.929688 187.6875 309.058594 Z M 159.554688 279.917969 C 160.4375 282.078125 161.335938 284.03125 162.441406 286 C 163.722656 288.398438 165.390625 291.246094 167.265625 294.109375 C 174.226562 307.195312 180.976562 320.269531 187.070312 333.707031 C 186.320312 335.324219 186.609375 337.019531 187.539062 338.558594 C 188.292969 356.195312 179.441406 373.523438 181.011719 391.429688 C 182.660156 411.023438 194.507812 428.664062 194.460938 448.546875 C 194.390625 457.75 192.011719 466.988281 184.640625 473.125 C 183.746094 473.894531 183.472656 474.710938 183.601562 475.765625 C 180.914062 478.074219 178.035156 480.15625 174.757812 482 C 173.136719 461.996094 173.214844 441.699219 174.75 421.511719 C 176.28125 401.328125 179.273438 381.253906 177.878906 361.054688 C 176.691406 343.59375 171.507812 326.453125 163.726562 310.375 C 148.347656 278.648438 124.074219 251.0625 101.527344 222.765625 C 95.996094 215.648438 90.453125 208.738281 85.148438 201.429688 C 83.242188 198.984375 77.671875 200.652344 78.492188 203.644531 C 90.75 254.390625 108.132812 303.847656 130.441406 351.800781 C 136.375 364.597656 142.742188 377.222656 149.332031 389.652344 C 140.5625 392.125 130.726562 383.84375 125.441406 379.046875 C 124.65625 378.359375 123.871094 377.671875 123.101562 376.777344 C 112.996094 352.777344 103.320312 328.597656 94.496094 304.277344 C 83.453125 273.300781 73.484375 241.984375 64.585938 210.332031 C 62.273438 202.203125 60.171875 194.089844 58.066406 185.976562 C 56.621094 180.214844 55.160156 174.664062 52.640625 169.238281 C 48.519531 160.136719 41.769531 149.785156 30.289062 146.613281 C 20.269531 143.546875 10.042969 148.632812 2.992188 156.046875 C -6.398438 144.660156 -23.183594 131.457031 -41.058594 135.328125 C -47.027344 136.761719 -51.875 139.949219 -55.519531 143.859375 C -47.527344 132.328125 -37.503906 121.578125 -26.707031 111.722656 C -21.320312 106.898438 -15.929688 102.078125 -10.15625 97.703125 C -4.140625 92.925781 2.082031 88.167969 9.25 84.734375 C 21.183594 79.152344 33.925781 79.492188 46.03125 82.714844 C 39.402344 101.050781 48.082031 119.082031 59.074219 134.148438 C 71.382812 151.199219 85.644531 167.351562 98.160156 184.417969 C 120.519531 215.210938 141.117188 247.125 159.554688 279.917969 Z M 57.03125 86.691406 C 82.152344 97.601562 101.605469 117.078125 115.085938 137.984375 C 128.933594 159.546875 137.550781 183.855469 143.03125 208.128906 C 146.167969 221.972656 147.796875 236.328125 150.691406 250.574219 C 148.847656 247.292969 146.78125 244.207031 144.726562 240.910156 C 133.539062 222.898438 121.695312 205.253906 109.191406 187.976562 C 97.074219 171.152344 83.871094 154.867188 70.890625 138.394531 C 59.242188 123.695312 46.964844 106.226562 51.75 87.335938 C 52.019531 86.519531 52.289062 85.703125 52.5625 84.886719 C 54.179688 85.636719 55.8125 86.179688 57.03125 86.691406 Z M 182.027344 725.128906 L 182.085938 721.578125 C 175.03125 723.550781 169.132812 718.5 164.265625 713.734375 C 157.664062 706.953125 151.078125 699.964844 144.910156 693.007812 C 119.226562 664.683594 95.300781 635.238281 72.703125 604.847656 C 28.085938 544.738281 -11.300781 481.886719 -50.894531 419.019531 C -71.0625 386.929688 -90.988281 354.4375 -104.242188 319.523438 C -116.773438 286.132812 -122.007812 250.363281 -117.429688 214.921875 C -109.183594 150.457031 -66.488281 89.863281 -1.503906 55.453125 C 15.503906 46.488281 34.433594 39.765625 54.535156 39.617188 C 71.917969 39.476562 88.953125 43.910156 103.894531 51.113281 C 137.234375 66.832031 158.550781 94.824219 173.6875 124.230469 C 179.15625 134.898438 183.773438 145.714844 188.394531 156.53125 C 187.898438 157.542969 187.804688 158.789062 188.972656 159.925781 C 189.550781 160.597656 190.128906 161.269531 190.703125 161.941406 C 191.570312 164.308594 192.644531 166.691406 193.511719 169.058594 C 194.332031 174.773438 192.386719 181.113281 190.054688 187.007812 C 187.640625 191.21875 185.4375 195.445312 183.234375 199.675781 C 182.738281 200.683594 182.851562 201.945312 183.621094 202.84375 C 186.503906 206.203125 189.914062 208.136719 193.390625 209.234375 L 193.527344 201.921875 C 193.320312 201.90625 193.125 201.679688 192.917969 201.664062 C 194.613281 201.375 196.085938 201.277344 197.769531 201.195312 C 196.605469 208.226562 193.796875 214.917969 189.367188 220.859375 C 188.441406 222.046875 188.550781 223.308594 189.320312 224.207031 C 185.019531 225.761719 180.058594 227.6875 175.269531 227.324219 C 170.070312 226.929688 167.617188 223.394531 166.253906 219.3125 C 165.097656 215.25 164.789062 211.039062 164.464844 207.039062 C 163.996094 202.1875 163.527344 197.339844 162.867188 192.265625 C 159.148438 155.773438 154.550781 117.125 130.960938 86.03125 C 120.511719 72.050781 104.539062 56.394531 83.667969 55.644531 C 67.371094 55.246094 54.71875 64.75 48.152344 76.808594 C 36.273438 73.394531 23.148438 72.605469 10.890625 76.90625 C -4.152344 82.042969 -16.304688 93.257812 -27.515625 103.082031 C -49.476562 122.132812 -68.773438 144.734375 -77.855469 170.625 C -86.414062 195.089844 -84.023438 218.714844 -76.109375 241.292969 C -76.125 241.5 -76.140625 241.707031 -76.15625 241.917969 C -74.503906 283.484375 -62.75 324.351562 -47.28125 363.203125 C -31.625 402.273438 -12.332031 440.367188 10.015625 476.808594 C 32.539062 513.683594 58.117188 548.902344 86.976562 582.28125 C 97.167969 594.148438 107.566406 606.03125 120.425781 615.800781 C 124.789062 624.503906 129.359375 633.222656 134.152344 641.75 C 138.03125 648.53125 142.121094 655.332031 146.433594 661.9375 C 150.566406 668.113281 154.449219 674.894531 159.464844 680.507812 C 163.53125 684.796875 169.347656 688.167969 176.164062 686.59375 C 176.804688 686.429688 177.445312 686.269531 178.082031 686.109375 C 178.824219 690.144531 182.078125 694.15625 183.921875 697.4375 C 188.9375 705.773438 191.894531 719.183594 182.027344 725.128906 Z M 182.027344 725.128906 " fill-opacity="1" fill-rule="nonzero"/></g></g></g></svg>